<mxfile host="app.diagrams.net" agent="Mozilla/5.0 (Windows NT 10.0; Win64; x64) AppleWebKit/537.36 (KHTML, like Gecko) Chrome/139.0.0.0 Safari/537.36" version="28.1.0">
  <diagram name="Page-1" id="-QcqcJgGZxrOqGyJ9oHZ">
    <mxGraphModel dx="1895" dy="2122" grid="1" gridSize="10" guides="1" tooltips="1" connect="1" arrows="1" fold="1" page="1" pageScale="1" pageWidth="850" pageHeight="1100" math="0" shadow="0">
      <root>
        <mxCell id="0" />
        <mxCell id="1" parent="0" />
        <mxCell id="R17HGsittRQBgpeo0M53-1" value="Deciding new chocolate flavours" style="rounded=0;whiteSpace=wrap;html=1;fillColor=#fff2cc;strokeColor=#d6b656;gradientColor=#ffd966;" vertex="1" parent="1">
          <mxGeometry x="370" y="-760" width="190" height="80" as="geometry" />
        </mxCell>
        <mxCell id="R17HGsittRQBgpeo0M53-2" value="Making the chocolate recipe" style="image;html=1;image=img/lib/clip_art/general/Full_Folder_128x128.png" vertex="1" parent="1">
          <mxGeometry x="417.5" y="-640" width="100" height="90" as="geometry" />
        </mxCell>
        <mxCell id="R17HGsittRQBgpeo0M53-5" value="Mixing the Ingredients" style="sketch=0;outlineConnect=0;gradientColor=#ea6b66;fillColor=#f8cecc;strokeColor=#b85450;dashed=0;verticalLabelPosition=bottom;verticalAlign=top;align=center;html=1;fontSize=12;fontStyle=0;aspect=fixed;pointerEvents=1;shape=mxgraph.aws4.gear;" vertex="1" parent="1">
          <mxGeometry x="417.5" y="-500" width="100" height="100" as="geometry" />
        </mxCell>
        <mxCell id="R17HGsittRQBgpeo0M53-6" value="Taste Testing" style="rhombus;whiteSpace=wrap;html=1;fillColor=#bac8d3;strokeColor=#23445d;" vertex="1" parent="1">
          <mxGeometry x="412.5" y="-350" width="115" height="110" as="geometry" />
        </mxCell>
        <mxCell id="R17HGsittRQBgpeo0M53-7" value="Wrapping chocolates" style="ellipse;whiteSpace=wrap;html=1;fillColor=#fad7ac;strokeColor=#b46504;" vertex="1" parent="1">
          <mxGeometry x="407.5" y="-200" width="125" height="80" as="geometry" />
        </mxCell>
        <mxCell id="R17HGsittRQBgpeo0M53-8" value="Selling Chocolates" style="ellipse;shape=cloud;whiteSpace=wrap;html=1;fillColor=#d5e8d4;strokeColor=#82b366;" vertex="1" parent="1">
          <mxGeometry x="402.5" y="-80" width="135" height="90" as="geometry" />
        </mxCell>
        <mxCell id="R17HGsittRQBgpeo0M53-11" value="Customer Feedback" style="sketch=0;html=1;aspect=fixed;strokeColor=#9673a6;shadow=0;fillColor=#e1d5e7;verticalAlign=top;labelPosition=center;verticalLabelPosition=bottom;shape=mxgraph.gcp2.gear" vertex="1" parent="1">
          <mxGeometry x="432.5" y="50" width="100" height="100" as="geometry" />
        </mxCell>
        <mxCell id="R17HGsittRQBgpeo0M53-12" value="" style="endArrow=classic;html=1;rounded=0;" edge="1" parent="1">
          <mxGeometry width="50" height="50" relative="1" as="geometry">
            <mxPoint x="465" y="-680" as="sourcePoint" />
            <mxPoint x="465" y="-640" as="targetPoint" />
          </mxGeometry>
        </mxCell>
        <mxCell id="R17HGsittRQBgpeo0M53-13" value="" style="endArrow=classic;html=1;rounded=0;" edge="1" parent="1" source="R17HGsittRQBgpeo0M53-2" target="R17HGsittRQBgpeo0M53-5">
          <mxGeometry width="50" height="50" relative="1" as="geometry">
            <mxPoint x="440" y="-500" as="sourcePoint" />
            <mxPoint x="490" y="-550" as="targetPoint" />
            <Array as="points">
              <mxPoint x="468" y="-550" />
            </Array>
          </mxGeometry>
        </mxCell>
        <mxCell id="R17HGsittRQBgpeo0M53-14" value="" style="endArrow=classic;html=1;rounded=0;entryX=0.5;entryY=0;entryDx=0;entryDy=0;" edge="1" parent="1" source="R17HGsittRQBgpeo0M53-5" target="R17HGsittRQBgpeo0M53-6">
          <mxGeometry width="50" height="50" relative="1" as="geometry">
            <mxPoint x="440" y="-290" as="sourcePoint" />
            <mxPoint x="490" y="-340" as="targetPoint" />
          </mxGeometry>
        </mxCell>
        <mxCell id="R17HGsittRQBgpeo0M53-15" value="" style="endArrow=classic;html=1;rounded=0;entryX=0.5;entryY=0;entryDx=0;entryDy=0;exitX=0.5;exitY=1;exitDx=0;exitDy=0;" edge="1" parent="1" source="R17HGsittRQBgpeo0M53-6" target="R17HGsittRQBgpeo0M53-7">
          <mxGeometry width="50" height="50" relative="1" as="geometry">
            <mxPoint x="440" y="-230" as="sourcePoint" />
            <mxPoint x="490" y="-280" as="targetPoint" />
          </mxGeometry>
        </mxCell>
        <mxCell id="R17HGsittRQBgpeo0M53-17" value="" style="endArrow=classic;html=1;rounded=0;exitX=0.5;exitY=1;exitDx=0;exitDy=0;" edge="1" parent="1" source="R17HGsittRQBgpeo0M53-7">
          <mxGeometry width="50" height="50" relative="1" as="geometry">
            <mxPoint x="440" y="-50" as="sourcePoint" />
            <mxPoint x="470" y="-70" as="targetPoint" />
          </mxGeometry>
        </mxCell>
        <mxCell id="R17HGsittRQBgpeo0M53-18" value="" style="endArrow=classic;html=1;rounded=0;entryX=0.445;entryY=0.056;entryDx=0;entryDy=0;entryPerimeter=0;exitX=0.55;exitY=0.95;exitDx=0;exitDy=0;exitPerimeter=0;" edge="1" parent="1" source="R17HGsittRQBgpeo0M53-8" target="R17HGsittRQBgpeo0M53-11">
          <mxGeometry width="50" height="50" relative="1" as="geometry">
            <mxPoint x="440" y="-50" as="sourcePoint" />
            <mxPoint x="490" y="-100" as="targetPoint" />
          </mxGeometry>
        </mxCell>
      </root>
    </mxGraphModel>
  </diagram>
</mxfile>
